<svg xmlns="http://www.w3.org/2000/svg" width="320" height="320" viewBox="0 0 320 320" role="img" aria-label="Portraet af Anna Vestergaard">
  <defs>
    <linearGradient id="bg" x1="0" y1="0" x2="1" y2="1">
      <stop offset="0%" stop-color="#ede9fe" />
      <stop offset="100%" stop-color="#c4b5fd" />
    </linearGradient>
  </defs>
  <rect width="320" height="320" rx="160" fill="url(#bg)" />
  <circle cx="160" cy="156" r="71" fill="#f3d2b8" />
  <path d="M90 274c10-47 42-71 70-71 30 0 62 22 74 71z" fill="#4c1d95" />
  <path d="M88 154c0-46 31-78 72-78 34 0 62 22 69 56-9-8-23-13-38-13-23 0-43 11-56 29-17 2-32 4-47 6z" fill="#b45309" />
  <circle cx="133" cy="158" r="5" fill="#1f2937" />
  <circle cx="187" cy="158" r="5" fill="#1f2937" />
  <path d="M135 187c9 8 41 8 50 0" fill="none" stroke="#92400e" stroke-width="4" stroke-linecap="round" />
  <path d="M154 167c1 5 1 9-1 13" fill="none" stroke="#d9a68a" stroke-width="3" stroke-linecap="round" />
  <path d="M118 140c9-7 21-8 29-2" fill="none" stroke="#8b4513" stroke-width="4" stroke-linecap="round" />
  <path d="M174 139c8-6 19-5 26 2" fill="none" stroke="#8b4513" stroke-width="4" stroke-linecap="round" />
</svg>