<svg xmlns="http://www.w3.org/2000/svg" width="320" height="320" viewBox="0 0 320 320" role="img" aria-label="Portraet af Line Kragelund">
  <defs>
    <linearGradient id="bg" x1="0" y1="0" x2="1" y2="1">
      <stop offset="0%" stop-color="#d1fae5" />
      <stop offset="100%" stop-color="#6ee7b7" />
    </linearGradient>
  </defs>
  <rect width="320" height="320" rx="160" fill="url(#bg)" />
  <circle cx="160" cy="158" r="72" fill="#f7d7c1" />
  <path d="M88 274c12-48 44-70 72-70s60 22 72 70z" fill="#14532d" />
  <path d="M92 150c0-42 30-74 68-74 39 0 68 30 68 69v22c-5-10-12-18-23-24-17 10-38 16-64 16-18 0-34-4-49-11z" fill="#7c3f2a" />
  <circle cx="133" cy="158" r="5" fill="#1f2937" />
  <circle cx="187" cy="158" r="5" fill="#1f2937" />
  <path d="M132 187c9 8 45 8 56 0" fill="none" stroke="#b45309" stroke-width="4" stroke-linecap="round" />
  <path d="M152 168c2 6 2 10 0 14" fill="none" stroke="#d19a7d" stroke-width="3" stroke-linecap="round" />
  <path d="M121 139c8-7 20-8 28-2" fill="none" stroke="#6b2f1a" stroke-width="4" stroke-linecap="round" />
  <path d="M173 137c8-6 20-5 27 2" fill="none" stroke="#6b2f1a" stroke-width="4" stroke-linecap="round" />
</svg>