<svg xmlns="http://www.w3.org/2000/svg" width="320" height="320" viewBox="0 0 320 320" role="img" aria-label="Portraet af Thomas Moeller">
  <defs>
    <linearGradient id="bg" x1="0" y1="0" x2="1" y2="1">
      <stop offset="0%" stop-color="#fee2e2" />
      <stop offset="100%" stop-color="#fca5a5" />
    </linearGradient>
  </defs>
  <rect width="320" height="320" rx="160" fill="url(#bg)" />
  <circle cx="160" cy="154" r="70" fill="#e9c3a5" />
  <path d="M86 274c11-47 43-70 74-70 30 0 61 21 72 70z" fill="#7f1d1d" />
  <path d="M94 150c0-40 28-72 66-72 40 0 66 31 66 73v11c-12-13-31-21-53-21-29 0-56 14-72 35z" fill="#52525b" />
  <circle cx="134" cy="156" r="5" fill="#111827" />
  <circle cx="186" cy="156" r="5" fill="#111827" />
  <path d="M136 187c10 8 38 8 48 0" fill="none" stroke="#7c2d12" stroke-width="4" stroke-linecap="round" />
  <path d="M156 165c2 6 2 11 0 15" fill="none" stroke="#cf9879" stroke-width="3" stroke-linecap="round" />
  <path d="M124 201c11 8 60 8 72 0" fill="none" stroke="#27272a" stroke-width="8" stroke-linecap="round" />
</svg>